<svg width="2400" height="1555" viewBox="0 0 2400 1555" fill="none" xmlns="http://www.w3.org/2000/svg">
<g clip-path="url(#clip0_29_20)">
<rect width="2400" height="1555" fill="#F2F2F2"/>
<path d="M1176.87 175.209C1155.4 167.019 1128.44 151.291 1132.07 115.669C1136.33 73.7553 1185.99 71.1017 1206.04 52.8877C1269.13 -4.39585 1324.52 -27.051 1372.88 66.3639C1384.43 88.6723 1375.74 153.347 1376.15 187.123C1383.1 197.996 1388.31 206.193 1397.24 214.909C1428.59 199.956 1456.52 185.866 1490.01 179.421C1527.3 172.242 1527.6 181.545 1529.93 223.977C1554.36 271.227 1566.88 268.384 1551.61 331.209C1594.68 382.74 1627.47 454.193 1654.46 519.589C1711.81 490.384 1771.73 459.04 1798.77 551.966C1832.77 668.822 1835.67 799.361 1793.15 915.789C1767.25 986.747 1749.81 1001.21 1710.43 1051.94C1716.45 1070.73 1725.05 1115.55 1729.69 1136.69L1766.04 1300.96L1800.36 1456.55C1804.77 1476.19 1816.75 1524.58 1818.81 1543.08L2057.27 1542.8C2049.41 1507.21 2042.84 1470.67 2035.37 1434.84C2024.44 1382.47 2012.13 1326.4 2004.12 1273.17C2011 1272.15 2017.78 1270.97 2024.71 1270.83C1972.51 1236.1 1927.02 1203.31 1908.43 1127.18C1906.26 1118.3 1904.69 1104.81 1907.97 1095.92C1919.13 1081.72 1932.1 1080.47 1947.22 1079.88C1991.3 1078.15 2028.77 1098.76 2064.26 1128.82C2061.97 1048.65 2066.21 969.493 2096.87 895.75C2107.41 872.02 2120.71 834.741 2145.71 832.525C2160.27 831.235 2170.05 852.897 2177.02 866.063C2223.13 953.235 2223.51 1061.51 2207.38 1160.81C2255.71 1125.6 2311.9 1094.8 2368.48 1108.45C2393.57 1114.5 2394.68 1141.98 2382.29 1165.43C2356.14 1215 2318.81 1245.14 2276.95 1270.87C2255.28 1355.32 2234.91 1442.17 2216.4 1527.79C2215.32 1532.8 2214.41 1536.85 2212.9 1541.74C2215.89 1541.84 2222.43 1541.87 2225 1542.03C2253.57 1543.78 2444.38 1535.13 2453.34 1545.77L2453.32 1548.91C2450.53 1552.28 2447.56 1553.81 2443.72 1553.84C2411.66 1554.12 2379.33 1553.97 2347.28 1554.07L2148.47 1554.71L1533.65 1556.43L-192.547 1562.17C-198.983 1562.16 -212.502 1561.56 -216.474 1554.86C-211.551 1548.83 -198.765 1548.32 -191.823 1548.29L65.218 1547.88L77.2834 760.356L-8.87267 760.63C-8.69002 742.094 -8.29367 722.93 -8.4911 704.455C21.2017 704.416 56.4246 705.478 85.6922 704.183L85.3399 700.801C83.2756 697.715 83.9013 698.984 83.2654 694.812C86.9933 690.146 86.3776 691.405 91.999 689.372C92.4506 684.244 91.9996 668.925 91.9494 663.068C85.4185 658.74 87.5487 661.081 83.4673 653.234L82.3327 651.839C77.1927 648.399 75.8743 647.673 75.1783 640.791C78.524 637.317 77.5062 638.34 82.6314 638.029C88.1971 637.879 91.5537 637.853 97.0388 636.653L94.1934 635.275L93.6674 632.528C100.215 609.869 108.443 635.561 103.298 587.284L98.0709 580.77L94.5432 576.934L94.7354 573.513C97.3422 570.91 101.406 569.281 104.709 569.272C174.017 569.117 244.353 567.748 313.578 569.202C310.785 549.118 305.093 513.245 305.339 494.042C331.655 487.521 390.131 489.071 417.522 491.064L415.919 526.357C419.327 528.044 423.798 529.876 426.916 532.02C464.544 557.917 461.535 606.196 430.523 637.089C443.155 644.531 446.034 648.026 453.035 663.367C452.255 681.665 451.689 684.868 447.3 703.066L586.381 703.019C570.345 666.126 548.394 624.581 530.174 589.272L469.568 471.188C456.738 446.524 443.151 422.382 430.97 397.215C421.913 378.502 422.059 368.491 442.34 368.333C511.427 367.793 580.538 368.251 649.637 367.448C667.983 367.235 688.375 366.429 706.366 370.134C713.322 380.388 719.089 391.719 725.054 402.874C747.589 445.017 768.709 488.254 790.37 531.095L834.155 618.153C841.343 632.602 850.737 649.527 856.392 664.598C875.254 664.741 893.968 664.758 912.834 663.316C918.896 648.116 920.774 643.15 928.284 629.578C912.555 640.211 892.399 654.562 873.902 649.609C868.311 648.111 867.567 638.948 870.351 633.431C881.899 610.544 907.708 600.552 927.044 591.527C964.812 575.282 1002.21 587.398 1039.83 594.609C1055.33 597.582 1072.06 599.709 1087.89 601.998C1109.83 580.124 1137.52 583.609 1164.02 579.09C1195.05 573.799 1226.76 570.724 1257.55 563.182C1270.05 537.293 1298.32 476.702 1308.02 449.387C1305.46 415.284 1297.36 367.599 1297.51 335.128C1303.1 323.936 1305.16 319.203 1312.97 309.96C1305.22 301.09 1299.44 294.482 1290.98 286.73C1236.07 340.261 1239.07 302.276 1209.04 255.369C1179.08 251.368 1188.4 239.558 1193.39 212.608C1190.35 199.548 1183.29 186.151 1176.87 175.209ZM143.202 759.836L132.515 1547.7L349.039 1547.12L575.301 1546.63L586.283 758.444L370.29 759.098L143.202 759.836ZM1370.36 197.993C1349.52 198.035 1328.35 198.321 1307.53 198.051C1318.41 193.742 1321.28 194.342 1328.04 181.597C1336.67 165.327 1326.26 142.63 1310.96 147.094C1304.85 151.882 1303.57 158.025 1299.36 163.218C1288.75 176.286 1261.2 168.857 1248.19 166.397C1222.18 161.488 1201.13 137.397 1181.85 126.404C1179.08 162.11 1197.05 184.255 1202.92 212.356C1200.54 220.817 1195.36 234.982 1198.31 242.843C1203.58 245.966 1216.23 245.26 1217.02 247.569C1228.85 282.051 1235.6 242.533 1251.17 248.022C1254.64 257.017 1236.21 268.509 1230.27 272.597C1260.23 352.87 1299.22 250.156 1321 224.091L1323.03 225.73C1317.8 248.279 1309.38 262.808 1297.14 280.264C1301.94 284.467 1309.01 290.264 1313.23 294.961L1331.98 314.319C1348.09 279.979 1363.84 249.476 1388.82 223.246L1370.36 197.993ZM1206.54 842.192C1207.15 813.743 1208 784.821 1208.35 756.416C1025.3 755.626 838.855 755.095 655.864 758.348C652.64 764.89 653.529 797.74 653.478 807.213C652.143 1053.58 643.686 1300.49 644.27 1546.83C678.717 1546.79 715.098 1546 749.369 1546.82C754.35 1498.3 778.002 1491.89 810.3 1478.97C844.878 1465.14 882.713 1455.77 915.277 1435.78C924.203 1430.3 956.354 1398.06 957.557 1387.38C952.58 1384.16 944.358 1382.95 938.582 1381.7C950.606 1354.3 962.149 1306.14 973.622 1275.3C992.651 1210.84 1017.84 1141.51 1041.86 1079.47C1045.18 1070.91 1056.4 1042.72 1060.13 1035.75C1047.02 1000.13 1037.41 976.067 1049.52 935.329C1069.66 867.589 1156.63 853.105 1206.54 842.192ZM1304.99 1544.19L1338.53 1543.99C1357.13 1481.28 1395.29 1487 1432.31 1459.17C1445.25 1430.98 1456.27 1410.42 1456.47 1377.51C1456.49 1372.3 1458.52 1370.28 1458.07 1364.16C1453.33 1359.72 1448.75 1355.74 1443.87 1351.56C1432.22 1359.02 1418.81 1369.98 1407.5 1378.74C1397.32 1371.24 1358.63 1333.55 1347.89 1322.94C1347.19 1321.75 1341.92 1315.11 1340 1312.08C1331.85 1308.18 1282.2 1259.21 1268.87 1248.18C1267.66 1346.06 1265.28 1446.74 1265.23 1544.37C1273.07 1544.32 1286.23 1544.73 1293.67 1543.97C1307.25 1476.98 1321.67 1423.32 1331.53 1352.59C1339.24 1360.26 1334.79 1369.46 1336.1 1381.35C1336.12 1388.2 1331.38 1411.87 1330.07 1419.64C1322.97 1461.57 1313.6 1502.7 1304.99 1544.19ZM1560.08 1544.06L1703.42 1543.63L1632.48 1225.45C1620.19 1169.02 1609.57 1114 1595.86 1058.04L1348.53 1058.57C1360.03 1073.74 1378.17 1093.14 1390.87 1107.46L1482.07 1209.29C1497.4 1226.7 1517.65 1248.7 1530.61 1268.36C1531.11 1278.9 1532.5 1287.5 1538.94 1295.25C1545.72 1303.42 1555.22 1298.61 1560.81 1301.84C1586.85 1316.93 1622.76 1342.14 1638.05 1371.81C1627.98 1390.51 1610.19 1409.86 1596.61 1425.36C1562.05 1464.83 1527.95 1505.35 1493.01 1544.26L1560.08 1544.06ZM925.04 662.713C935.609 653.598 944.981 641.416 955.84 636.082C989.541 632.091 994.828 653.152 1024.35 661.293C1038.12 665.09 1059.57 665.969 1074.8 668.762C1073.09 643.142 1074.05 635.816 1081.72 611.552C1057.8 607.916 974.032 591.269 957.82 594.728C942.334 597.535 883.917 615.374 879.516 635.553L880.243 638.286C902.31 644.325 946.554 594.566 966.955 615.793C960.758 620.968 956.496 621.083 950.172 624.532C938.183 631.067 929.392 648.248 925.04 662.713ZM982.554 651.688C976.081 648.935 969.623 645.639 962.776 645.347C952.819 649.717 945.357 655.816 937.075 664.003C942.242 663.993 950.829 664.325 955.711 663.888C965.749 654.459 970.495 654.131 982.554 651.688ZM1276.52 756.393C1272.16 769.617 1273.16 807.335 1272.84 823.496C1309.7 813.203 1350.69 803.386 1387.95 794.57C1395.56 792.798 1407.94 790.408 1415.07 788.124C1412.83 777.548 1409.45 765.55 1407.53 755.661L1276.52 756.393ZM1714.25 1543.25L1807.77 1543.13C1801.72 1508.59 1793.83 1472.39 1786.08 1438.29C1766.2 1350.78 1747.72 1262.71 1728.41 1175.04L1711.16 1098.16C1708.67 1087.33 1703.72 1068.37 1702.04 1057.87C1672.72 1057.65 1635.31 1056.67 1606.28 1058.19C1609.59 1071.04 1612.16 1084 1615.16 1096.93C1649.58 1244.61 1677.47 1396.57 1714.25 1543.25ZM1181.01 1545.19C1185.77 1522.93 1200.09 1458.58 1198.45 1441.19C1195.09 1405.8 1207.49 1196.1 1201.42 1178.79C1199.6 1177.39 1198.33 1176.03 1196.21 1175.99C1174.17 1215.21 1152.5 1265.08 1133.33 1307.25C1117.09 1342.97 1095.82 1386.81 1082.02 1423.03C1074.38 1420.54 1067.1 1418.32 1059.69 1414.92C1071 1462.78 1074.27 1482.48 1075.07 1533.71L1075.82 1543.79C1080.94 1547 1168.27 1545.15 1181.01 1545.19Z" fill="#230F26"/>
<path d="M103.298 587.284C120.352 582.397 231.186 582.274 255.483 588.106C257.154 588.509 260.262 595.195 260.637 598.967C261.851 611.188 257.139 623.055 252.401 633.391L146.525 633.806C137.135 633.837 101.872 633.331 94.1934 635.274L93.6675 632.528C100.215 609.869 108.443 635.561 103.298 587.284Z" fill="#230F26"/>
<path d="M109.692 593.058C152.058 592.74 194.47 592.033 236.799 593.177C255.337 593.676 252.572 602.614 250.144 621.412C211.165 625.717 150.332 623.521 109.396 623.446L109.692 593.058Z" fill="#FDFBF7"/>
<path d="M91.9493 663.068C126.905 663.066 206.463 660.934 244.49 664.275C245.456 665.483 246.295 666.529 247.003 667.417C251.25 687.001 239.539 693.042 227.801 691.088C213.91 688.776 95.5579 691.871 91.999 689.371C92.4505 684.244 91.9996 668.925 91.9493 663.068Z" fill="#FDFBF7"/>
<path d="M83.4673 653.234C95.2729 654.693 114.109 652.752 126.812 653.19C166.927 654.572 208.308 652.206 248.164 652.907C258.513 671.344 259.334 683.667 246.264 701.36C230.229 699.519 204.221 700.423 187.341 700.467L85.3399 700.8C83.2756 697.715 83.9013 698.983 83.2654 694.812C86.9933 690.146 86.3776 691.405 91.999 689.372C95.558 691.871 213.91 688.776 227.801 691.088C239.539 693.042 251.25 687.001 247.003 667.418C246.295 666.53 245.456 665.483 244.49 664.275C206.464 660.934 126.905 663.067 91.9494 663.068C85.4185 658.74 87.5487 661.081 83.4673 653.234Z" fill="#230F26"/>
<path d="M98.0709 580.769C152.565 581.695 206.299 580.42 260.679 580.38C265.673 592.113 271.093 606.046 267.594 619.763C266.029 625.9 262.132 632.471 257.366 635.365C247.91 641.104 101.08 640.4 82.6313 638.029C88.1971 637.879 91.5537 637.853 97.0387 636.653L94.1934 635.275C101.872 633.331 137.135 633.837 146.525 633.806L252.401 633.391C257.139 623.055 261.851 611.188 260.637 598.967C260.262 595.195 257.154 588.509 255.482 588.106C231.186 582.274 120.352 582.397 103.298 587.284L98.0709 580.769Z" fill="#F09FA5"/>
<path d="M85.3399 700.8L187.341 700.467C204.221 700.423 230.229 699.519 246.264 701.36L253.695 704.5C204.988 707.754 136.135 704.442 85.6922 704.182L85.3399 700.8Z" fill="#F09FA5"/>
<path d="M82.3327 651.838C99.1178 647.621 115.558 649.97 132.017 649.155C167.998 647.377 216.905 652.423 251.49 648.241L248.164 652.907C208.308 652.206 166.927 654.572 126.812 653.19C114.109 652.752 95.2729 654.693 83.4673 653.233L82.3327 651.838Z" fill="#F09FA5"/>
<path d="M251.489 648.241C260.007 657.312 262.599 663.594 263.753 677.782C264.377 685.458 260.236 702.329 253.695 704.5L246.264 701.36C259.334 683.667 258.512 671.344 248.164 652.907L251.489 648.241Z" fill="#FDFBF7"/>
<path d="M1457.48 267.882C1463.68 268.231 1473.22 274.502 1478.73 278.177C1609.97 365.712 1678.83 598.872 1717.1 767.765C1691.31 821.825 1675.66 843.072 1641.89 889.36C1599.95 897.427 1556.3 905.284 1514.21 911.687C1510.99 896.536 1505.19 875.93 1500.41 861.409C1470.59 770.824 1448.38 668.107 1415.31 580.042C1428.9 555.806 1443.09 524.474 1455.37 498.671C1461.85 502.511 1468.38 507.561 1474.98 502.118L1474.42 498.553C1470.81 493.369 1465.69 491.813 1460.44 489.517C1464.97 481.009 1475.94 462.312 1475.47 453.91L1473.57 451.944C1464.1 455.067 1446.63 494.826 1441.02 506.519C1413.46 566.933 1373.05 640.574 1342.59 700.899C1277.94 698.569 1212.63 696.938 1147.93 696.465C1123.51 659.598 1133.22 626.985 1154.51 592.516C1189.42 586.512 1226.73 582.343 1260.79 572.224C1269.9 585.106 1299.76 629.134 1315.85 612.479C1324.08 586.559 1285.24 565.577 1270.95 557.195C1292.38 511.559 1311.41 465.188 1329.5 417.468C1343.79 379.779 1350.54 337.905 1377.04 309.57L1378.9 310.286C1447.39 337.01 1453.19 431.059 1464.31 435.193L1466.63 432.049C1467.45 427.796 1467.39 423.975 1466.31 419.894C1450.19 358.816 1433.25 330.26 1389.21 300.552C1414.06 284.1 1431.09 277.331 1457.48 267.882Z" fill="#FBEAC3"/>
<path d="M1496.52 685.939C1529.57 697.125 1592.21 765.695 1625.24 787.815C1627.13 789.08 1626.07 795.092 1625.87 797.752C1604.3 787.241 1522.49 715.88 1498.7 697.547C1495.95 695.425 1496.56 690.03 1496.52 685.939Z" fill="#230F26"/>
<path d="M977.242 1323.21C974.748 1320.86 971.701 1319.07 972.044 1315.45C973.997 1294.81 988.763 1260.4 995.079 1240.63C1018.03 1168.98 1044.22 1098.23 1071.85 1029.07C1085.21 995.64 1102.63 954.416 1121.62 925.68C1143.26 892.982 1193.61 884.2 1225.14 874.555C1265.8 862.125 1307.07 851.786 1347.95 840.785C1372.33 834.312 1399.25 829.308 1423.03 821.245C1431.56 854.262 1439.96 887.803 1448.98 920.57C1375.99 935.964 1275.8 952.063 1207.01 981.489C1216.67 1000.46 1232.74 1030.59 1240.35 1050.22C1228.38 1034.72 1209.32 1002.76 1196.65 992.909L1194.34 992.964C1195.36 1007.29 1223.02 1045.53 1231.48 1057.18C1222.68 1107.09 1147.29 1248.9 1125.71 1299.97C1124.65 1302.47 1099.76 1356.62 1099.41 1357.13L1094.94 1367.63L1076.12 1408.2C1033.56 1393.78 996.14 1382.56 952.843 1372.64C957.508 1358.08 962.133 1343.41 966.965 1328.94C973.267 1326.96 973.62 1328.2 977.242 1323.21Z" fill="#F09FA5"/>
<path d="M966.965 1328.94C974.623 1332.88 985.356 1335.36 993.57 1337.83C1027.3 1347.99 1061.34 1356.9 1094.94 1367.63L1076.12 1408.2C1033.56 1393.78 996.14 1382.56 952.843 1372.64C957.508 1358.08 962.133 1343.41 966.965 1328.94Z" fill="#F09FA5"/>
<path d="M1052.22 1343.04C1067.66 1308.5 1181.67 1048.05 1193.5 1037.85L1194.99 1039.14C1194.65 1057.56 1157.83 1133.39 1148.56 1153.92L1061.22 1345.53C1073.68 1349.39 1086.9 1353.81 1099.41 1357.13L1094.94 1367.63C1061.34 1356.9 1027.3 1347.99 993.57 1337.83C985.356 1335.36 974.622 1332.88 966.965 1328.94C973.267 1326.96 973.62 1328.2 977.242 1323.21C984.496 1321.82 1040.58 1340.03 1052.22 1343.04Z" fill="#230F26"/>
<path d="M432.797 379.791L684.351 379.14C702.57 409.553 725.959 459.034 742.751 492.241L846.428 697.242L598.842 698.05C580.947 672.513 547.598 602.499 531.718 571.164L432.797 379.791Z" fill="#9ED0C9"/>
<path d="M1729.53 503.815C1768.78 495.974 1781.7 526.892 1792.57 565.739C1810.66 630.422 1816.8 693.094 1814.26 761.372C1809.88 879.655 1770.58 966.512 1701.04 1046.21C1669.22 1045.53 1636.82 1045.92 1604.94 1045.92C1603.04 1036.39 1602.25 1027.61 1594.18 1024.13L1592.01 1026.5C1590.1 1032.9 1592.08 1039.37 1593.44 1045.98L1445.64 1046.61C1424.58 1046.78 1340.18 1050.46 1328.13 1037.18L1328.22 1034.98C1335.86 1028.83 1396.71 1026.05 1409.97 1025.02C1417.42 1024 1430.67 1024.17 1438.56 1024.01C1427.66 1028.83 1413.45 1031.77 1401.93 1032.97C1394.35 1033.76 1384.67 1033.16 1377.71 1035.71L1377.57 1038.13C1378.97 1039.61 1381.34 1041.53 1383.22 1041.38C1465.72 1034.55 1553.18 1000.31 1616.82 933.324C1697.11 848.584 1761.23 729.602 1773.66 598.839C1781.63 517.893 1757.28 493.627 1696.39 524.59C1689.57 528.057 1666.19 543.219 1660.46 534.604C1670.09 516.04 1712.79 506.731 1729.53 503.815Z" fill="#9ED0C9"/>
<path d="M595.909 758.874L644.153 758.744L632.308 1545.94C617.138 1547.52 600.542 1546.93 585.247 1546.81L595.909 758.874Z" fill="#9ED0C9"/>
<path d="M87.0321 760.567L133.437 760.563L125.443 1342.67L123.663 1477.51C123.54 1489.21 123.668 1537.19 121.799 1546.46L118.94 1547.85L76.3641 1548.12L87.0321 760.567Z" fill="#9ED0C9"/>
<path d="M1252.57 1048.36C1249.81 1047.74 1431.77 1249.79 1444.93 1265.28C1424.95 1281.67 1405.67 1296.64 1385.23 1312.15L1367.15 1326.84C1315.31 1273.25 1253.82 1217.06 1199.96 1164.31C1217.4 1127.44 1232.6 1098.39 1241.07 1056.52L1252.57 1048.36Z" fill="#F09FA5"/>
<path d="M642.51 714.659L1349.77 712.648L1349.31 745.446L876.422 746.644C803.96 746.834 731.497 746.922 659.033 747.594C638.638 747.781 641.673 734.389 642.51 714.659Z" fill="#FBEAC3"/>
<path d="M2029.93 1357.53L2245.52 1356.6C2237.54 1391.13 2230 1424.26 2221.56 1458.72L2216.75 1477.83C2166.69 1496.78 2152.53 1484.02 2103.22 1469.88C2089.33 1465.9 2066.52 1464.86 2051.65 1464.26C2043.7 1428.19 2036.91 1393.89 2029.93 1357.53Z" fill="#9ED0C9"/>
<path d="M1286.07 13.376L1288.75 13.3647C1313.88 13.5514 1332.43 26.2548 1349.93 47.4204C1377.74 81.0697 1367.65 139.224 1366.74 185.857L1340.3 185.814C1342.93 162.528 1336.95 129.575 1311.63 132.999C1301.4 134.383 1295.44 146.315 1290.18 156.301C1263.93 160.715 1249.58 154.309 1225.62 143.446C1212.17 133.516 1173.02 98.9683 1158.73 116.134C1156.87 122.504 1156.99 119.877 1157.98 126.155C1161.18 131.555 1164.83 133.257 1169.65 136.33L1174.46 163.492C1162.19 156.476 1148.43 147.067 1142.24 131.289C1140.62 128.504 1139.42 116.001 1141.07 113.373C1155.99 89.488 1187.96 77.6276 1208.63 63.6242C1234.17 46.3134 1258.89 23.6509 1286.07 13.376Z" fill="#795A69"/>
<path d="M1201.51 89.8376C1218.53 90.7468 1254.58 117.44 1277.16 116.011C1297.3 114.736 1317.68 97.6861 1336.96 99.534C1337.82 99.6156 1338.55 102.427 1339.1 103.847C1299.34 129.985 1252.91 133.533 1213.25 105.071C1206.84 100.476 1204.7 98.1456 1201.51 89.8376Z" fill="#230F26"/>
<path d="M0.460987 716.295L635.444 714.494C634.704 727.088 634.846 734.66 635.341 747.29L0.000448784 748.935L0.460987 716.295Z" fill="#FBEAC3"/>
<path d="M2148.11 844.875C2179.01 871.209 2198.14 946.854 2203.25 990.768C2214.61 1088.1 2204.23 1189.29 2156.98 1272.09L2139 1272.15L2139.53 1232.89L2141.21 1133.44C2161.58 1112.33 2188.52 1091.64 2201.52 1063.45C2183 1073.81 2158.04 1102.18 2142.13 1119.03L2148.11 844.875Z" fill="#9ED0C9"/>
<path d="M1217.03 186.558C1221.62 184.782 1226.43 187.901 1227.81 193.536C1229.18 199.17 1226.59 205.207 1222.01 207.045C1217.39 208.898 1212.52 205.782 1211.13 200.103C1209.75 194.422 1212.39 188.346 1217.03 186.558Z" fill="#230F26"/>
<path d="M1208.46 156.885C1212.88 157.933 1218.87 158.141 1219.72 164.195C1217.46 168.663 1212.5 169.578 1208.23 171.117C1202.71 174.511 1203.78 175.186 1198.79 174.119L1197.33 170.646C1199.2 160.738 1201.33 160.409 1208.46 156.885Z" fill="#230F26"/>
<path d="M2135.5 848.84C2136.68 849.263 2136.95 849.926 2138.01 851.092C2138.59 911.068 2135.84 978.442 2133.97 1038.57C2126.1 1031.62 2098.86 1005.26 2090.61 1007.38C2091.7 1018.93 2125.38 1046.2 2133.81 1053.66L2129.62 1247.89C2129.77 1254.47 2130.36 1262.65 2128.84 1268.8C2113.88 1286.46 2099.57 1242.83 2095.2 1230.83C2059.15 1132.03 2065.78 928.38 2135.5 848.84Z" fill="#9ED0C9"/>
<path d="M1446.2 934.121L1448.76 934.215C1454.85 939.237 1460.15 963.395 1462.76 973.159C1493.38 971.436 1544.28 961.648 1575.9 956.341C1491.82 1019.85 1440.26 1013.75 1345 1019.44C1310.11 1022.71 1281.21 1025.7 1247.42 1039.62C1239.14 1025.57 1228.2 1002.49 1220.5 987.181C1287.54 962.202 1376.18 946.29 1446.2 934.121Z" fill="#F09FA5"/>
<path d="M1732.45 524.055C1806.26 516.926 1739.98 710.834 1724.14 751.41C1721.88 744.275 1719.8 734.994 1717.96 727.528C1702.3 664.699 1685.47 613.066 1665.98 551.677C1689.79 539.219 1707.07 530.919 1732.45 524.055Z" fill="#9ED0C9"/>
<path d="M1398.36 613.28C1403.42 622.206 1421.47 682.548 1425.65 696.499C1448.53 772.959 1471.48 850.002 1493.36 926.922C1532.79 922.925 1591.73 911.512 1631.38 902.601C1623.46 910.638 1615.44 919.302 1607.6 927.53L1590.14 944.326C1558.1 945.411 1502.12 955.292 1469.23 960.658C1451.53 903.371 1440.05 848.227 1425.68 789.816C1412.51 736.301 1399.47 687.338 1388.39 632.806L1398.36 613.28Z" fill="url(#paint0_linear_29_20)"/>
<path d="M1309.22 1035.57C1318.77 1038.67 1468.29 1210.68 1488.07 1233.07C1480.26 1239.19 1457.87 1259.76 1450.49 1255.02C1410.16 1212.03 1371.42 1166.11 1330.97 1123.18C1307.48 1098.23 1284.81 1073.53 1264.36 1044.68C1278.84 1040.62 1294.51 1037.55 1309.22 1035.57Z" fill="#F09FA5"/>
<path d="M1258.42 1238.02C1261.33 1258.69 1258.39 1316.75 1257.95 1341.15L1254.99 1545.31L1209.47 1545.2C1205.98 1531.44 1208.92 1475.77 1211.44 1460.41C1217.89 1420.89 1227.62 1378.75 1236.29 1339.5C1242.75 1310.19 1249.84 1265.39 1258.42 1238.02Z" fill="#9ED0C9"/>
<path d="M317.069 521.036L404.504 520.423C398.95 552.865 394.704 600.739 391.12 634.574C390.674 636.732 389.896 638.414 389.115 640.451C379.138 648.377 342.657 644.766 329.93 644.157C323.435 609.089 320.148 557.932 317.069 521.036Z" fill="#FDFBF7"/>
<path d="M1410.23 800.53C1415.1 799.118 1416.62 800.315 1418.57 805.216L1417.22 809.624C1413.21 814.328 1408.96 814.06 1403.59 815.362C1346.94 829.099 1290.28 844.113 1234.06 860.562C1208.49 868.046 1180.82 875.804 1155.84 885.653C1144.89 889.968 1128.17 900.706 1119.84 910.544C1094.11 940.946 1085.21 985.364 1065.5 1020.36C1049.56 992.638 1049.85 949.499 1066.12 921.374C1085.75 888.038 1124.74 875.889 1155.37 867.182C1239.99 843.132 1324.96 820.353 1410.23 800.53Z" fill="#F09FA5"/>
<path d="M2015.49 1284.35L2263.1 1283.3L2254.71 1315.12L2253.68 1317.48C2246.42 1322.99 2049.81 1321.73 2022.93 1321.78C2020.3 1309.5 2017.92 1296.73 2015.49 1284.35Z" fill="#FDFBF7"/>
<path d="M265.357 649.247C283.242 649.045 300.928 648.488 318.749 650.02C326.651 650.699 337.056 656.47 344.259 656.131C367.932 655.016 391.717 651.031 415.435 651.148C425.253 651.165 441.932 652.91 445.702 666.607C448.454 676.603 442.293 688.713 438.469 697.558C428.252 707.452 388.995 703.774 374.86 703.771L267 703.95C272.84 679.688 273.178 671.878 265.357 649.247Z" fill="#9ED0C9"/>
<path d="M2378.63 1138.02C2381.56 1155.37 2354.44 1189.87 2345.18 1201.73C2331.77 1218.91 2315.7 1230.57 2300.21 1243.73C2259.31 1278.49 2223.38 1272.47 2176.84 1272.34L2176.77 1270.5C2185.57 1251.13 2352.21 1153.06 2378.63 1138.02Z" fill="#9ED0C9"/>
<path d="M1511.05 188.998C1524.75 192.93 1517.98 229.499 1524.25 238.413C1549.88 274.801 1552.38 272.004 1545.34 323.67C1519.71 297.241 1504.53 283.466 1475.42 263.209C1486.49 262.816 1513.72 263.848 1520.95 254.048L1519.19 251.744C1505.82 246.654 1491.01 249.762 1477.07 251.627C1427.9 262.762 1410.82 273.174 1368.1 303.204C1398.81 239.538 1457.49 212.104 1511.05 188.998Z" fill="#9ED0C9"/>
<path d="M2338.42 1118.38L2339.45 1118.3C2346.58 1117.75 2369.09 1118.69 2374.32 1124.5C2372.39 1130.97 2364.52 1133.12 2359.56 1135.82C2307.22 1164.27 2256.72 1197.45 2206.9 1232.16C2198.07 1238.39 2189.01 1245.37 2180.27 1251.9C2191.36 1224.92 2196.65 1206.21 2204.8 1177.86C2252.81 1138.85 2281.87 1124.37 2338.42 1118.38Z" fill="#9ED0C9"/>
<path d="M1530.51 1390.15C1537.74 1397.75 1545.81 1412.65 1551.55 1422.62C1474.19 1516.29 1484.56 1514.01 1378.79 1518.3L1358.89 1518.21C1380.08 1497.34 1412.43 1482.51 1437.64 1470.11L1459.22 1479.61C1474.35 1453.98 1485.92 1432.17 1498.89 1404.88C1510.75 1400.04 1519.21 1396.58 1530.51 1390.15Z" fill="#FDFBF7"/>
<path d="M921.835 1441.78C937.393 1449.65 966.185 1472.62 986.469 1483.79C981.569 1494.41 977.064 1506.87 972.809 1518.03C904.008 1519.61 835.473 1518.87 766.694 1518.68C770.424 1512.4 772.412 1509.81 776.903 1504.28C793.924 1495.61 830.506 1484.23 849.457 1477.78C856.305 1481.6 862.866 1485.14 869.277 1490.01C875.53 1494.75 876.937 1504.58 884.423 1504.15L885.942 1501.47C884.789 1491.36 872.919 1478.67 866.966 1471.35L868.485 1470.12C875.096 1468.99 886.681 1470.71 890.272 1478.35L888.091 1486.71L889.812 1488.7C894.596 1487.92 930.713 1470.95 938.12 1467.56L939.16 1463.78C935.314 1457.78 921.438 1459.8 917.413 1451.98C917.598 1445.87 917.734 1447.5 921.835 1441.78Z" fill="#FDFBF7"/>
<path d="M2054.72 1476.36C2070.24 1476.87 2087.83 1477.85 2102.97 1481.68C2148.18 1493.12 2168.17 1509.89 2214.2 1489.81L2206.59 1523.95L2202.08 1542.07L2067.83 1542.58C2062.97 1522.83 2057.93 1496.48 2054.72 1476.36Z" fill="#9ED0C9"/>
<path d="M1493.94 1240.96C1502.28 1247.61 1515.87 1264.41 1523.39 1273.46C1484.85 1305.2 1447.14 1336.22 1407.19 1365.26C1396.92 1354.49 1385.87 1344.06 1375.25 1333.77C1414.8 1301.79 1453.75 1271.75 1493.94 1240.96Z" fill="#F09FA5"/>
<path d="M1935.06 1093.37C1986.8 1089.01 2031.04 1106.41 2067.91 1150.62C2069.35 1159.93 2078.86 1199.57 2075.4 1205.2L2071.53 1203.53C2055.98 1192.42 1924.83 1102.75 1923.33 1098.27C1926.54 1094.94 1930.81 1094.48 1935.06 1093.37Z" fill="#9ED0C9"/>
<path d="M864.842 675.331L979.805 674.483C1004.35 674.346 1035.38 672.676 1059.74 677.488C1074.85 680.473 1105.64 695.87 1122.95 699.014C1123.33 699.711 1123.7 700.41 1124.08 701.107C1096.51 703.625 1059.81 699.714 1031.18 700.397C976.019 701.71 922.367 702.848 867.272 700.206C868.182 689.032 867.51 686.07 864.842 675.331Z" fill="#9ED0C9"/>
<path d="M1617.01 1361.94C1621.26 1363.94 1624.67 1368.55 1628.06 1372.42C1598.73 1408.14 1568.93 1442.67 1538.48 1476.91C1518.55 1499.31 1498.62 1523.26 1477.84 1544.34L1359.73 1545.05C1354.3 1544.5 1355.65 1545.5 1351.5 1541.95L1351.19 1538.23C1361.71 1520.39 1445.77 1530.48 1470.63 1520.48C1494.58 1510.84 1591.34 1391.19 1617.01 1361.94Z" fill="#FDFBF7"/>
<path d="M2028.73 1186.76C2043.13 1194.06 2069.75 1215.25 2083.35 1225.67C2088.15 1242.01 2094.9 1257.14 2101.86 1272.13C2084.93 1272.57 2070.85 1273.79 2054.29 1268.98C2022.76 1257.74 2002.68 1244.09 1975.81 1222.52C1993.95 1210.86 2010.92 1199.24 2028.73 1186.76Z" fill="#9ED0C9"/>
<path d="M759.796 1529.09L973.355 1528.25C987.343 1528.19 1054.54 1526.89 1063.54 1528.8C1065.37 1533.1 1064.69 1539.89 1064.58 1545.15C1001.6 1548.17 924.794 1545.85 860.439 1546.05L796.917 1546.24C787.996 1546.27 768.839 1546.99 760.966 1545.1C758.407 1540.9 759.463 1534.63 759.796 1529.09Z" fill="#FDFBF7"/>
<path d="M1916.28 1110.89C1935.4 1118.32 1999.62 1165.34 2020.77 1180.29L2003.45 1191.99L1969.36 1214.77C1939.72 1186.16 1926.18 1155.04 1916.28 1110.89Z" fill="#9ED0C9"/>
<path d="M1212.85 1191.97C1223.33 1199.43 1239.69 1216.83 1249.45 1226.78L1218.75 1374.53C1216.58 1386.66 1213.11 1398.94 1209.97 1410.81C1208.81 1342.82 1211.03 1260.08 1212.85 1191.97Z" fill="#9ED0C9"/>
<path d="M1217.65 757.282L1265.4 757.357C1265.59 776.788 1266.55 803.442 1263.22 822.505C1262.69 825.521 1261.68 825.376 1259.14 827.106C1246.82 831.267 1229.45 835.521 1216.66 839.089L1217.65 757.282Z" fill="#9ED0C9"/>
<path d="M1135.14 594.445C1137.3 594.056 1137.55 594.341 1139.7 594.77C1140.06 600.561 1134.06 607.079 1131.44 614.555C1121.63 642.65 1124.22 663.584 1131.54 690.342L1101.69 682.604C1067.22 671.406 1085.23 621.341 1103.89 599.358C1112.62 597.116 1125.96 595.717 1135.14 594.445Z" fill="#9ED0C9"/>
<path d="M1517.95 1290.57C1526.03 1296.13 1534.21 1305.42 1541.35 1312.95C1523.2 1349.43 1506.55 1354.15 1476.01 1365.94L1452.16 1344.36L1517.95 1290.57Z" fill="#FDFBF7"/>
<path d="M1057.84 1461.81C1063.69 1468.92 1064.87 1505.77 1065.61 1517.79L991.972 1517.82C987.309 1517.73 988.982 1518.4 985.275 1515.74C983.484 1506.57 992.998 1492.52 997.212 1484.8L1057.84 1461.81Z" fill="#9ED0C9"/>
<path d="M1575.11 1323.52C1581.82 1327.25 1604.55 1347.39 1611.69 1353.49C1597.58 1370.56 1581.11 1388.33 1566.36 1404.84L1557.11 1414.65L1539.36 1383.22C1552.92 1364.79 1563.99 1344.19 1575.11 1323.52Z" fill="#9ED0C9"/>
<path d="M2025.17 1332.94C2052.27 1332.04 2233.54 1328.33 2248.2 1333.82C2250.5 1338.5 2249.65 1338.41 2249.36 1345.02C2209.63 1347.75 2159.82 1344.05 2118.84 1345.83C2104.28 1346.46 2038.05 1347.07 2028.93 1345.08C2026.07 1341.55 2025.93 1337.84 2025.17 1332.94Z" fill="#9ED0C9"/>
<path d="M968.828 1387.03C984.383 1389.75 1036.87 1401.34 1046.93 1412.78C1050.07 1424.82 1040.77 1428.28 1033.18 1432.24C1002.72 1449.12 981.944 1433.22 958.932 1410.78L968.828 1387.03Z" fill="#FDFBF7"/>
<path d="M1552.17 1310.21C1556.51 1311.67 1563.53 1315.09 1567.99 1317.05C1535.67 1376.95 1534.73 1382.59 1478.36 1399.22C1473.05 1400.93 1470.29 1402.16 1465.68 1398.45C1463.39 1393 1464.34 1384.79 1464.59 1378.33C1509.04 1368.89 1528.9 1361.14 1552.17 1310.21Z" fill="#9ED0C9"/>
<path d="M949.174 1416.9C975.075 1445.38 999.09 1459.21 1034.98 1443.24C1041.39 1440.39 1046.32 1436.13 1053.05 1433.62C1056.41 1436.97 1057.21 1443.68 1055.52 1448.57C1052.31 1453.13 1047.49 1454.05 1042.68 1455.75L992.219 1474.91C972.782 1464.41 951.157 1448.02 932.982 1434.55L949.174 1416.9Z" fill="#9ED0C9"/>
<path d="M269.643 580.42L313.147 580.438C314.853 591.543 321.016 626.586 317.565 636.026L314.473 637.433L267.873 637.3C278.881 614.122 278.03 603.635 269.643 580.42Z" fill="#F09FA5"/>
<path d="M1408.34 592.435C1408.58 592.696 1410.04 594.114 1410.38 595.113C1444.62 698.867 1474.51 805.71 1505.65 911.067C1505.2 913.308 1504.85 915.08 1504.59 916.381C1495.74 909.347 1482.52 856.153 1478.23 841.718L1443.65 726.099L1419.77 647.222C1415.47 633.418 1410.71 618.899 1406.69 604.936C1405.23 599.849 1406.7 597.975 1408.34 592.435Z" fill="#9ED0C9"/>
<path d="M1445.49 204.661L1447.12 205.071C1446.98 205.855 1403.79 239.031 1398.12 244.672C1362.3 280.298 1348.44 332.351 1332.07 383.208L1330.07 382.546C1326.54 364.305 1337.97 326.781 1345.4 310.294C1374.38 246.052 1390.66 226.585 1445.49 204.661Z" fill="#9ED0C9"/>
<path d="M697.627 380.473C719.011 395.346 800.878 581.295 822.416 617.189C826.718 624.36 857.809 686.08 860.164 694.715C845.741 687.322 762.357 505.658 745.93 477.336C737.768 463.264 701.692 395.255 697.627 380.473Z" fill="#9ED0C9"/>
<path d="M1358.96 711.708C1371.46 711.498 1384.37 711.968 1396.9 712.226L1405.71 745.321L1358.45 745.014L1358.96 711.708Z" fill="#F09FA5"/>
<path d="M408.536 536.965C451.806 541.062 464.447 615.788 405.831 636.985C400.803 635.615 402.463 636.915 399.382 632.354C399.676 617.554 427.263 621.346 434.238 601.792C445.151 571.208 412.471 556.289 408.536 536.965Z" fill="url(#paint1_linear_29_20)"/>
<path d="M1318.32 320.66C1322.1 323.466 1326 330.57 1325.06 335.854C1321.47 355.959 1324.65 415.949 1314.4 428.933C1310.38 398.863 1307.46 367.554 1306.05 337.072C1310.67 329.49 1312.61 327.067 1318.32 320.66Z" fill="#9ED0C9"/>
<path d="M312.965 500.656C335.72 500.016 383.545 497.541 407.243 501.872C409.649 502.311 410.453 506.979 411.376 510.12C389.599 510.843 337.853 513.831 315.232 507.678C313.494 507.205 313.406 503.347 312.965 500.656Z" fill="#F09FA5"/>
<path d="M407.733 558.878C426.934 570.319 431.759 583 418.698 605.309C413.075 609.701 409.284 612.146 404.233 606.734C400.664 594.611 405.567 572.433 407.733 558.878Z" fill="#F09FA5"/>
<path d="M1340 1312.08C1341.92 1315.11 1347.19 1321.75 1347.89 1322.94C1341.36 1328.34 1340.32 1369.05 1336.1 1381.35C1334.79 1369.46 1339.24 1360.26 1331.53 1352.59C1332.97 1339.93 1334.58 1322.74 1340 1312.08Z" fill="#230F26" fill-opacity="0.980392"/>
<path d="M1369.51 669.534C1375.05 673.433 1377.87 688.025 1376.56 696.228C1373.38 701.012 1374.58 699.584 1369.14 701.436L1361.23 700.974C1357.35 697.785 1358.37 699.662 1357.39 693.949C1358.91 686.217 1365.51 676.361 1369.51 669.534Z" fill="#FDFBF7"/>
<path d="M1272.51 571.116C1288.76 575.571 1303.17 590.284 1311.45 607.683C1296.43 606.316 1281.78 584.251 1272.51 571.116Z" fill="#FBEAC3"/>
<path d="M1379.63 648.76C1386.86 653.846 1392.06 691.426 1392.8 701.975L1392.26 701.268C1385.08 692.002 1375.49 661.399 1379.63 648.76Z" fill="#9ED0C9"/>
<path d="M1476.1 1409.7C1478.64 1409.23 1481.43 1409.15 1484.02 1408.99L1485.9 1411.5L1484.77 1415.51C1480.82 1420.31 1480.21 1421.24 1474.94 1423.24C1470.15 1422.37 1464.14 1422.55 1462.9 1416.25C1466.03 1411.93 1471.36 1411.12 1476.1 1409.7Z" fill="#FDFBF7"/>
<path d="M897.981 1456.59C902.702 1458.38 909.301 1460.18 912.643 1464.24L912.555 1467.41L907.823 1472.02C901.563 1470.2 895.463 1469.15 891.51 1463.46C893.192 1458.73 893.711 1459.54 897.981 1456.59Z" fill="#FDFBF7"/>
<path d="M1453.34 1431.54C1458.43 1430.92 1465.87 1430.28 1470.17 1433.5C1472.85 1438.53 1472.26 1436.11 1471.57 1443.39C1462.12 1447.01 1454.82 1444.39 1453.34 1431.54Z" fill="#FDFBF7"/>
<path d="M1444.73 1451.06C1449.71 1451.63 1455.17 1451.59 1459.11 1455.09C1460.77 1460.93 1460.34 1459.05 1457.86 1466.28C1453.29 1465.31 1448.87 1464.9 1445.08 1461.73C1442.66 1456.52 1443.26 1458.42 1444.73 1451.06Z" fill="#FDFBF7"/>
<path d="M2196.5 11.7299C2217.03 11.2865 2239.68 12.1303 2260.37 12.3561L2254.46 454.573C2227.69 457.005 2180 455.299 2152.16 455.362L1953.26 455.78L1888.18 456.02C1887.15 405.77 1889.34 352.511 1889.98 301.942L1892.34 13.1836L2196.5 11.7299ZM1900.2 442.851L2152.63 442.661C2169.27 442.652 2231.43 445.198 2242.59 441.593L2247.76 26.3293L1905.69 27.4369L1900.2 442.851Z" fill="#6DA5A3"/>
<path d="M1957.24 90.2866C1976.91 88.1242 2018.11 89.4535 2038.79 89.4582L2195.16 89.5865C2192.13 183.809 2192.26 283.758 2191.14 378.462C2166.29 380.038 2133.1 378.969 2107.39 379.039L1952.82 379.286C1950.8 294.943 1954.54 175.837 1957.24 90.2866ZM1960.45 371.005C2032.84 370.785 2111.41 372.531 2183.29 370.171L2186.86 96.5467C2114.4 96.7116 2036.41 94.9931 1964.41 97.1417L1960.45 371.005Z" fill="#6DA5A3" fill-opacity="0.968627"/>
<path d="M1917.26 42.029L2237.34 40.9973L2234.03 294.254C2233.62 330.813 2234.6 391.953 2231.69 426.837C2193.7 428.713 2150.94 427.84 2112.76 427.846L1910.51 427.713C1910.87 414.444 1910.95 387.727 1912.2 375.542C1915.2 366.76 1914.95 353.725 1915.3 344.106C1915.97 358.058 1914.55 413.055 1916.49 419.778L1917.89 420.575C2002.68 418.916 2087.69 420.568 2172.5 419.608C2189.5 419.415 2206.51 420.023 2223.48 418.036C2226.03 379.52 2225.46 330.396 2226.09 291.246L2229.11 49.4186L1923.18 50.4097C1923.03 60.2386 1922.83 67.2755 1921.91 77.1608C1917.98 89.2431 1917.36 165.822 1916.98 184.774C1916.09 153.764 1918.4 118.446 1918.05 87.0766C1917.9 73.2475 1919.14 55.3373 1917.26 42.029Z" fill="#6DA5A3" fill-opacity="0.976471"/>
<path d="M1912.2 375.542C1910.78 326.241 1915.24 267.78 1913.07 217.603C1911.97 192.292 1913.83 50.2348 1917.26 42.0292C1919.14 55.3374 1917.9 73.2477 1918.05 87.0768C1918.4 118.446 1916.09 153.764 1916.98 184.774C1917.36 165.822 1917.98 89.2433 1921.92 77.161C1922.43 97.8543 1921.78 119.944 1921.23 140.706C1918.9 229.427 1921.42 317.997 1918.52 406.719C1918.38 411.088 1918.47 416.334 1917.89 420.576L1916.49 419.778C1914.55 413.055 1915.97 358.058 1915.3 344.106C1914.95 353.725 1915.2 366.76 1912.2 375.542Z" fill="#6DA5A3" fill-opacity="0.87451"/>
</g>
<defs>
<linearGradient id="paint0_linear_29_20" x1="1604.68" y1="755.227" x2="1408.92" y2="779.747" gradientUnits="userSpaceOnUse">
<stop stop-color="#FBEBB3"/>
<stop offset="1" stop-color="#FFFCFC"/>
</linearGradient>
<linearGradient id="paint1_linear_29_20" x1="442.406" y1="579.342" x2="395.884" y2="585.108" gradientUnits="userSpaceOnUse">
<stop stop-color="#F8DDD3"/>
<stop offset="1" stop-color="#EAE5DE"/>
</linearGradient>
<clipPath id="clip0_29_20">
<rect width="2400" height="1555" fill="white"/>
</clipPath>
</defs>
</svg>
