<svg width="2930" height="1984" viewBox="0 0 2930 1984" fill="none" xmlns="http://www.w3.org/2000/svg">
<g clip-path="url(#clip0_29_20)">
<rect width="2930" height="1984" fill="#F2F2F2"/>
<path d="M1513.3 592.936C1491.83 584.745 1464.87 569.017 1468.5 533.396C1472.76 491.482 1522.42 488.828 1542.47 470.614C1605.56 413.331 1660.95 390.676 1709.32 484.09C1720.86 506.399 1712.17 571.074 1712.58 604.849C1719.53 615.723 1724.74 623.919 1733.67 632.635C1765.02 617.682 1792.95 603.593 1826.44 597.147C1863.73 589.969 1864.03 599.271 1866.36 641.704C1890.79 688.954 1903.31 686.11 1888.04 748.935C1931.11 800.467 1963.9 871.92 1990.89 937.316C2048.24 908.11 2108.16 876.766 2135.2 969.693C2169.2 1086.55 2172.11 1217.09 2129.58 1333.52C2103.68 1404.47 2086.25 1418.94 2046.86 1469.66C2052.88 1488.46 2061.48 1533.27 2066.12 1554.41L2102.47 1718.69L2136.79 1874.28C2141.2 1893.92 2153.18 1942.3 2155.25 1960.8L2393.7 1960.53C2385.84 1924.94 2379.27 1888.39 2371.8 1852.57C2360.88 1800.2 2348.56 1744.13 2340.55 1690.9C2347.43 1689.87 2354.21 1688.69 2361.14 1688.55C2308.94 1653.83 2263.45 1621.04 2244.86 1544.91C2242.69 1536.03 2241.12 1522.54 2244.4 1513.65C2255.56 1499.45 2268.53 1498.2 2283.66 1497.6C2327.73 1495.88 2365.2 1516.48 2400.69 1546.55C2398.4 1466.37 2402.64 1387.22 2433.3 1313.48C2443.84 1289.75 2457.14 1252.47 2482.14 1250.25C2496.7 1248.96 2506.48 1270.62 2513.45 1283.79C2559.56 1370.96 2559.94 1479.23 2543.81 1578.54C2592.14 1543.32 2648.33 1512.53 2704.91 1526.17C2730 1532.22 2731.11 1559.7 2718.72 1583.15C2692.57 1632.72 2655.24 1662.87 2613.38 1688.6C2591.71 1773.05 2571.34 1859.9 2552.83 1945.52C2551.75 1950.53 2550.84 1954.58 2549.33 1959.47C2552.32 1959.57 2558.86 1959.6 2561.43 1959.75C2590 1961.51 2780.81 1952.85 2789.77 1963.5L2789.75 1966.64C2786.96 1970 2783.99 1971.54 2780.15 1971.57C2748.09 1971.84 2715.76 1971.7 2683.71 1971.8L2484.9 1972.44L1870.08 1974.15L143.884 1979.89C137.447 1979.89 123.929 1979.29 119.957 1972.58C124.88 1966.56 137.666 1966.05 144.608 1966.02L401.649 1965.61L413.714 1178.08L327.558 1178.36C327.741 1159.82 328.137 1140.66 327.94 1122.18C357.632 1122.14 392.855 1123.2 422.123 1121.91L421.771 1118.53C419.706 1115.44 420.332 1116.71 419.696 1112.54C423.424 1107.87 422.808 1109.13 428.43 1107.1C428.881 1101.97 428.43 1086.65 428.38 1080.79C421.849 1076.47 423.979 1078.81 419.898 1070.96L418.764 1069.57C413.623 1066.13 412.305 1065.4 411.609 1058.52C414.955 1055.04 413.937 1056.07 419.062 1055.76C424.628 1055.61 427.984 1055.58 433.47 1054.38L430.624 1053L430.098 1050.25C436.646 1027.6 444.874 1053.29 439.728 1005.01L434.502 998.496L430.974 994.66L431.166 991.239C433.773 988.637 437.837 987.008 441.14 986.999C510.448 986.844 580.784 985.475 650.009 986.928C647.216 966.845 641.524 930.972 641.77 911.768C668.086 905.248 726.562 906.798 753.953 908.791L752.349 944.084C755.758 945.771 760.229 947.602 763.347 949.747C800.975 975.644 797.966 1023.92 766.953 1054.82C779.585 1062.26 782.465 1065.75 789.466 1081.09C788.686 1099.39 788.12 1102.59 783.731 1120.79L922.812 1120.75C906.775 1083.85 884.825 1042.31 866.604 1007L805.999 888.915C793.169 864.251 779.582 840.109 767.401 814.942C758.344 796.228 758.489 786.218 778.771 786.059C847.858 785.52 916.968 785.978 986.067 785.175C1004.41 784.961 1024.81 784.156 1042.8 787.86C1049.75 798.114 1055.52 809.446 1061.49 820.601C1084.02 862.743 1105.14 905.981 1126.8 948.822L1170.59 1035.88C1177.77 1050.33 1187.17 1067.25 1192.82 1082.32C1211.68 1082.47 1230.4 1082.48 1249.27 1081.04C1255.33 1065.84 1257.2 1060.88 1264.71 1047.31C1248.99 1057.94 1228.83 1072.29 1210.33 1067.34C1204.74 1065.84 1204 1056.67 1206.78 1051.16C1218.33 1028.27 1244.14 1018.28 1263.47 1009.25C1301.24 993.008 1338.64 1005.12 1376.26 1012.34C1391.76 1015.31 1408.49 1017.44 1424.32 1019.72C1446.26 997.851 1473.95 1001.34 1500.45 996.816C1531.48 991.526 1563.19 988.451 1593.98 980.909C1606.48 955.019 1634.76 894.428 1644.45 867.114C1641.89 833.01 1633.79 785.326 1633.94 752.855C1639.53 741.663 1641.59 736.93 1649.4 727.686C1641.65 718.817 1635.87 712.208 1627.42 704.456C1572.5 757.988 1575.5 720.003 1545.47 673.095C1515.51 669.095 1524.84 657.285 1529.82 630.335C1526.78 617.275 1519.72 603.877 1513.3 592.936ZM479.633 1177.56L468.945 1965.43L685.47 1964.85L911.732 1964.36L922.713 1176.17L706.721 1176.82L479.633 1177.56ZM1706.79 615.72C1685.95 615.761 1664.79 616.047 1643.96 615.777C1654.84 611.468 1657.71 612.068 1664.47 599.323C1673.1 583.053 1662.69 560.356 1647.39 564.821C1641.28 569.609 1640 575.752 1635.79 580.944C1625.18 594.012 1597.63 586.583 1584.62 584.124C1558.61 579.215 1537.56 555.123 1518.28 544.131C1515.51 579.836 1533.48 601.982 1539.35 630.083C1536.97 638.543 1531.79 652.708 1534.74 660.57C1540.01 663.693 1552.66 662.986 1553.45 665.296C1565.28 699.777 1572.03 660.26 1587.6 665.748C1591.08 674.743 1572.65 686.235 1566.71 690.323C1596.66 770.596 1635.65 667.883 1657.43 641.817L1659.46 643.456C1654.23 666.006 1645.81 680.535 1633.57 697.991C1638.37 702.193 1645.44 707.991 1649.66 712.688L1668.41 732.045C1684.52 697.705 1700.27 667.203 1725.25 640.973L1706.79 615.72ZM1542.97 1259.92C1543.58 1231.47 1544.43 1202.55 1544.78 1174.14C1361.73 1173.35 1175.29 1172.82 992.295 1176.07C989.071 1182.62 989.959 1215.47 989.909 1224.94C988.574 1471.3 980.117 1718.22 980.701 1964.55C1015.15 1964.51 1051.53 1963.73 1085.8 1964.55C1090.78 1916.03 1114.43 1909.62 1146.73 1896.7C1181.31 1882.87 1219.14 1873.49 1251.71 1853.51C1260.63 1848.03 1292.79 1815.78 1293.99 1805.1C1289.01 1801.89 1280.79 1800.67 1275.01 1799.42C1287.04 1772.02 1298.58 1723.86 1310.05 1693.03C1329.08 1628.56 1354.27 1559.24 1378.29 1497.2C1381.61 1488.63 1392.83 1460.45 1396.56 1453.47C1383.45 1417.85 1373.84 1393.79 1385.95 1353.06C1406.09 1285.32 1493.07 1270.83 1542.97 1259.92ZM1641.42 1961.92L1674.96 1961.72C1693.56 1899 1731.72 1904.73 1768.74 1876.89C1781.68 1848.71 1792.7 1828.15 1792.9 1795.24C1792.92 1790.02 1794.95 1788.01 1794.5 1781.88C1789.76 1777.44 1785.18 1773.47 1780.3 1769.28C1768.65 1776.74 1755.24 1787.71 1743.93 1796.47C1733.75 1788.96 1695.06 1751.28 1684.32 1740.67C1683.62 1739.48 1678.35 1732.84 1676.43 1729.81C1668.28 1725.9 1618.63 1676.94 1605.3 1665.91C1604.1 1763.79 1601.71 1864.47 1601.66 1962.1C1609.51 1962.05 1622.66 1962.46 1630.1 1961.69C1643.69 1894.71 1658.1 1841.04 1667.96 1770.32C1675.67 1777.99 1671.22 1787.18 1672.53 1799.07C1672.55 1805.93 1667.81 1829.59 1666.5 1837.36C1659.4 1879.29 1650.03 1920.43 1641.42 1961.92ZM1896.51 1961.79L2039.85 1961.36L1968.92 1643.17C1956.62 1586.75 1946.01 1531.72 1932.29 1475.77L1684.96 1476.3C1696.46 1491.47 1714.61 1510.87 1727.3 1525.19L1818.5 1627.02C1833.83 1644.43 1854.08 1666.43 1867.04 1686.09C1867.55 1696.63 1868.93 1705.22 1875.37 1712.97C1882.15 1721.15 1891.65 1716.33 1897.24 1719.57C1923.28 1734.66 1959.19 1759.87 1974.48 1789.54C1964.41 1808.24 1946.62 1827.59 1933.05 1843.09C1898.48 1882.55 1864.38 1923.08 1829.44 1961.99L1896.51 1961.79ZM1261.47 1080.44C1272.04 1071.32 1281.41 1059.14 1292.27 1053.81C1325.97 1049.82 1331.26 1070.88 1360.78 1079.02C1374.55 1082.82 1396 1083.7 1411.23 1086.49C1409.52 1060.87 1410.49 1053.54 1418.15 1029.28C1394.23 1025.64 1310.46 1009 1294.25 1012.45C1278.76 1015.26 1220.35 1033.1 1215.95 1053.28L1216.67 1056.01C1238.74 1062.05 1282.98 1012.29 1303.39 1033.52C1297.19 1038.69 1292.93 1038.81 1286.6 1042.26C1274.61 1048.79 1265.82 1065.97 1261.47 1080.44ZM1318.98 1069.41C1312.51 1066.66 1306.05 1063.37 1299.21 1063.07C1289.25 1067.44 1281.79 1073.54 1273.51 1081.73C1278.67 1081.72 1287.26 1082.05 1292.14 1081.61C1302.18 1072.19 1306.93 1071.86 1318.98 1069.41ZM1612.96 1174.12C1608.59 1187.34 1609.59 1225.06 1609.27 1241.22C1646.13 1230.93 1687.12 1221.11 1724.38 1212.3C1731.99 1210.52 1744.37 1208.13 1751.5 1205.85C1749.26 1195.27 1745.88 1183.28 1743.96 1173.39L1612.96 1174.12ZM2050.68 1960.97L2144.2 1960.85C2138.16 1926.32 2130.27 1890.12 2122.51 1856.02C2102.63 1768.51 2084.15 1680.44 2064.85 1592.76L2047.59 1515.89C2045.1 1505.06 2040.15 1486.1 2038.47 1475.59C2009.15 1475.37 1971.74 1474.39 1942.71 1475.92C1946.02 1488.76 1948.59 1501.73 1951.59 1514.66C1986.01 1662.34 2013.9 1814.29 2050.68 1960.97ZM1517.44 1962.91C1522.2 1940.66 1536.52 1876.3 1534.88 1858.92C1531.52 1823.52 1543.92 1613.83 1537.85 1596.52C1536.03 1595.12 1534.76 1593.75 1532.65 1593.72C1510.6 1632.94 1488.93 1682.81 1469.76 1724.97C1453.52 1760.7 1432.25 1804.54 1418.45 1840.76C1410.81 1838.26 1403.53 1836.04 1396.13 1832.64C1407.43 1880.51 1410.7 1900.2 1411.5 1951.44L1412.25 1961.52C1417.37 1964.72 1504.7 1962.88 1517.44 1962.91Z" fill="#230F26"/>
<path d="M439.728 1005.01C456.783 1000.12 567.617 1000 591.913 1005.83C593.585 1006.24 596.693 1012.92 597.068 1016.69C598.282 1028.91 593.57 1040.78 588.832 1051.12L482.956 1051.53C473.566 1051.56 438.302 1051.06 430.624 1053L430.098 1050.25C436.646 1027.6 444.874 1053.29 439.728 1005.01Z" fill="#230F26"/>
<path d="M446.123 1010.78C488.488 1010.47 530.901 1009.76 573.23 1010.9C591.768 1011.4 589.003 1020.34 586.574 1039.14C547.596 1043.44 486.763 1041.25 445.827 1041.17L446.123 1010.78Z" fill="#FDFBF7"/>
<path d="M428.38 1080.79C463.336 1080.79 542.894 1078.66 580.921 1082C581.886 1083.21 582.726 1084.26 583.434 1085.14C587.681 1104.73 575.97 1110.77 564.232 1108.81C550.34 1106.5 431.989 1109.6 428.43 1107.1C428.881 1101.97 428.43 1086.65 428.38 1080.79Z" fill="#FDFBF7"/>
<path d="M419.898 1070.96C431.704 1072.42 450.54 1070.48 463.243 1070.92C503.358 1072.3 544.739 1069.93 584.595 1070.63C594.943 1089.07 595.765 1101.39 582.695 1119.09C566.66 1117.25 540.651 1118.15 523.772 1118.19L421.771 1118.53C419.706 1115.44 420.332 1116.71 419.696 1112.54C423.424 1107.87 422.808 1109.13 428.43 1107.1C431.989 1109.6 550.34 1106.5 564.232 1108.81C575.97 1110.77 587.681 1104.73 583.434 1085.14C582.726 1084.26 581.886 1083.21 580.921 1082C542.894 1078.66 463.336 1080.79 428.38 1080.79C421.849 1076.47 423.979 1078.81 419.898 1070.96Z" fill="#230F26"/>
<path d="M434.502 998.496C488.996 999.421 542.729 998.146 597.11 998.107C602.104 1009.84 607.523 1023.77 604.025 1037.49C602.46 1043.63 598.563 1050.2 593.797 1053.09C584.341 1058.83 437.511 1058.13 419.062 1055.76C424.628 1055.61 427.984 1055.58 433.47 1054.38L430.624 1053C438.302 1051.06 473.566 1051.56 482.956 1051.53L588.832 1051.12C593.57 1040.78 598.282 1028.91 597.068 1016.69C596.693 1012.92 593.585 1006.24 591.913 1005.83C567.617 1000 456.783 1000.12 439.728 1005.01L434.502 998.496Z" fill="#F09FA5"/>
<path d="M421.771 1118.53L523.772 1118.19C540.651 1118.15 566.66 1117.25 582.695 1119.09L590.126 1122.23C541.419 1125.48 472.566 1122.17 422.123 1121.91L421.771 1118.53Z" fill="#F09FA5"/>
<path d="M418.764 1069.56C435.549 1065.35 451.989 1067.7 468.448 1066.88C504.429 1065.1 553.336 1070.15 587.92 1065.97L584.595 1070.63C544.739 1069.93 503.358 1072.3 463.243 1070.92C450.54 1070.48 431.704 1072.42 419.898 1070.96L418.764 1069.56Z" fill="#F09FA5"/>
<path d="M587.92 1065.97C596.438 1075.04 599.03 1081.32 600.184 1095.51C600.807 1103.18 596.666 1120.06 590.126 1122.23L582.695 1119.09C595.764 1101.39 594.943 1089.07 584.595 1070.63L587.92 1065.97Z" fill="#FDFBF7"/>
<path d="M1793.91 685.609C1800.11 685.957 1809.65 692.228 1815.16 695.903C1946.41 783.439 2015.26 1016.6 2053.53 1185.49C2027.74 1239.55 2012.09 1260.8 1978.32 1307.09C1936.38 1315.15 1892.73 1323.01 1850.64 1329.41C1847.42 1314.26 1841.62 1293.66 1836.84 1279.14C1807.02 1188.55 1784.81 1085.83 1751.74 997.769C1765.33 973.533 1779.53 942.201 1791.81 916.397C1798.28 920.238 1804.81 925.287 1811.41 919.844L1810.85 916.28C1807.24 911.096 1802.12 909.54 1796.88 907.243C1801.4 898.736 1812.37 880.039 1811.9 871.637L1810 869.67C1800.53 872.794 1783.06 912.553 1777.45 924.246C1749.89 984.659 1709.48 1058.3 1679.02 1118.63C1614.37 1116.3 1549.06 1114.66 1484.36 1114.19C1459.94 1077.32 1469.66 1044.71 1490.94 1010.24C1525.85 1004.24 1563.17 1000.07 1597.22 989.951C1606.33 1002.83 1636.19 1046.86 1652.28 1030.21C1660.51 1004.29 1621.67 983.303 1607.38 974.921C1628.81 929.286 1647.84 882.914 1665.93 835.195C1680.22 797.506 1686.97 755.632 1713.47 727.297L1715.33 728.012C1783.82 754.736 1789.62 848.785 1800.74 852.92L1803.06 849.775C1803.88 845.523 1803.82 841.702 1802.74 837.62C1786.62 776.543 1769.68 747.987 1725.64 718.278C1750.49 701.826 1767.53 695.058 1793.91 685.609Z" fill="#FBEAC3"/>
<path d="M1832.95 1103.67C1866 1114.85 1928.64 1183.42 1961.67 1205.54C1963.56 1206.81 1962.5 1212.82 1962.3 1215.48C1940.73 1204.97 1858.92 1133.61 1835.13 1115.27C1832.38 1113.15 1832.99 1107.76 1832.95 1103.67Z" fill="#230F26"/>
<path d="M1313.67 1740.93C1311.18 1738.59 1308.13 1736.8 1308.47 1733.18C1310.43 1712.53 1325.19 1678.13 1331.51 1658.35C1354.46 1586.71 1380.65 1515.96 1408.29 1446.8C1421.65 1413.37 1439.06 1372.14 1458.05 1343.41C1479.69 1310.71 1530.04 1301.93 1561.58 1292.28C1602.23 1279.85 1643.5 1269.51 1684.38 1258.51C1708.76 1252.04 1735.68 1247.03 1759.46 1238.97C1767.99 1271.99 1776.39 1305.53 1785.41 1338.3C1712.42 1353.69 1612.23 1369.79 1543.44 1399.22C1553.1 1418.19 1569.17 1448.31 1576.78 1467.94C1564.81 1452.45 1545.75 1420.49 1533.08 1410.64L1530.77 1410.69C1531.79 1425.02 1559.45 1463.26 1567.91 1474.91C1559.11 1524.82 1483.72 1666.63 1462.14 1717.69C1461.08 1720.2 1436.19 1774.35 1435.84 1774.86L1431.37 1785.36L1412.55 1825.93C1369.99 1811.51 1332.57 1800.28 1289.27 1790.37C1293.94 1775.81 1298.56 1761.13 1303.4 1746.66C1309.7 1744.69 1310.05 1745.93 1313.67 1740.93Z" fill="#F09FA5"/>
<path d="M1303.4 1746.66C1311.05 1750.6 1321.79 1753.09 1330 1755.56C1363.73 1765.72 1397.77 1774.63 1431.37 1785.36L1412.55 1825.93C1369.99 1811.51 1332.57 1800.28 1289.27 1790.37C1293.94 1775.81 1298.56 1761.13 1303.4 1746.66Z" fill="#F09FA5"/>
<path d="M1388.65 1760.77C1404.09 1726.22 1518.11 1465.78 1529.93 1455.58L1531.42 1456.86C1531.08 1475.28 1494.26 1551.11 1484.99 1571.65L1397.65 1763.26C1410.11 1767.12 1423.33 1771.54 1435.84 1774.86L1431.37 1785.36C1397.77 1774.63 1363.73 1765.72 1330 1755.56C1321.79 1753.09 1311.05 1750.6 1303.4 1746.66C1309.7 1744.69 1310.05 1745.93 1313.67 1740.93C1320.93 1739.54 1377.01 1757.76 1388.65 1760.77Z" fill="#230F26"/>
<path d="M769.227 797.518L1020.78 796.866C1039 827.279 1062.39 876.76 1079.18 909.968L1182.86 1114.97L935.273 1115.78C917.378 1090.24 884.029 1020.23 868.148 988.891L769.227 797.518Z" fill="#9ED0C9"/>
<path d="M2065.96 921.541C2105.21 913.701 2118.13 944.618 2129 983.466C2147.09 1048.15 2153.23 1110.82 2150.69 1179.1C2146.31 1297.38 2107.01 1384.24 2037.48 1463.94C2005.65 1463.26 1973.25 1463.64 1941.37 1463.65C1939.47 1454.11 1938.69 1445.33 1930.61 1441.85L1928.45 1444.23C1926.53 1450.63 1928.51 1457.09 1929.87 1463.71L1782.07 1464.33C1761.01 1464.51 1676.61 1468.19 1664.56 1454.91L1664.65 1452.71C1672.29 1446.55 1733.14 1443.78 1746.4 1442.74C1753.85 1441.72 1767.1 1441.9 1775 1441.74C1764.09 1446.56 1749.88 1449.5 1738.36 1450.7C1730.78 1451.49 1721.1 1450.88 1714.14 1453.43L1714 1455.86C1715.4 1457.34 1717.77 1459.26 1719.65 1459.1C1802.15 1452.28 1889.61 1418.03 1953.25 1351.05C2033.54 1266.31 2097.66 1147.33 2110.09 1016.57C2118.06 935.62 2093.71 911.353 2032.82 942.316C2026.01 945.784 2002.62 960.945 1996.89 952.331C2006.52 933.767 2049.23 924.458 2065.96 921.541Z" fill="#9ED0C9"/>
<path d="M932.34 1176.6L980.584 1176.47L968.739 1963.66C953.569 1965.24 936.973 1964.66 921.678 1964.54L932.34 1176.6Z" fill="#9ED0C9"/>
<path d="M423.463 1178.29L469.868 1178.29L461.873 1760.4L460.094 1895.23C459.971 1906.93 460.099 1954.91 458.23 1964.19L455.37 1965.58L412.795 1965.85L423.463 1178.29Z" fill="#9ED0C9"/>
<path d="M1589 1466.09C1586.24 1465.47 1768.2 1667.51 1781.36 1683C1761.38 1699.39 1742.1 1714.37 1721.66 1729.88L1703.59 1744.57C1651.74 1690.98 1590.25 1634.79 1536.39 1582.04C1553.83 1545.16 1569.03 1516.11 1577.5 1474.25L1589 1466.09Z" fill="#F09FA5"/>
<path d="M978.941 1132.39L1686.2 1130.37L1685.74 1163.17L1212.85 1164.37C1140.39 1164.56 1067.93 1164.65 995.464 1165.32C975.069 1165.51 978.104 1152.12 978.941 1132.39Z" fill="#FBEAC3"/>
<path d="M2366.36 1775.26L2581.95 1774.32C2573.97 1808.85 2566.43 1841.99 2557.99 1876.45L2553.18 1895.56C2503.12 1914.5 2488.96 1901.75 2439.65 1887.61C2425.76 1883.62 2402.95 1882.59 2388.08 1881.99C2380.13 1845.92 2373.34 1811.62 2366.36 1775.26Z" fill="#9ED0C9"/>
<path d="M1622.5 431.103L1625.18 431.091C1650.31 431.278 1668.86 443.981 1686.36 465.147C1714.17 498.796 1704.08 556.95 1703.17 603.583L1676.73 603.54C1679.37 580.255 1673.38 547.302 1648.06 550.726C1637.83 552.109 1631.87 564.041 1626.61 574.027C1600.37 578.441 1586.01 572.036 1562.05 561.172C1548.6 551.243 1509.45 516.695 1495.16 533.86C1493.3 540.231 1493.42 537.604 1494.41 543.881C1497.61 549.282 1501.26 550.984 1506.09 554.056L1510.89 581.219C1498.62 574.202 1484.86 564.794 1478.67 549.016C1477.05 546.231 1475.86 533.727 1477.5 531.1C1492.42 507.215 1524.39 495.354 1545.06 481.351C1570.6 464.04 1595.32 441.377 1622.5 431.103Z" fill="#795A69"/>
<path d="M1537.94 507.564C1554.96 508.473 1591.01 535.167 1613.59 533.738C1633.73 532.462 1654.11 515.413 1673.39 517.261C1674.25 517.342 1674.98 520.153 1675.53 521.574C1635.77 547.712 1589.34 551.259 1549.68 522.797C1543.27 518.202 1541.13 515.872 1537.94 507.564Z" fill="#230F26"/>
<path d="M336.892 1134.02L971.874 1132.22C971.135 1144.82 971.277 1152.39 971.771 1165.02L336.431 1166.66L336.892 1134.02Z" fill="#FBEAC3"/>
<path d="M2484.54 1262.6C2515.44 1288.94 2534.57 1364.58 2539.68 1408.49C2551.04 1505.83 2540.66 1607.02 2493.41 1689.82L2475.44 1689.88L2475.96 1650.61L2477.64 1551.16C2498.01 1530.06 2524.96 1509.37 2537.95 1481.18C2519.44 1491.54 2494.47 1519.9 2478.56 1536.76L2484.54 1262.6Z" fill="#9ED0C9"/>
<path d="M1553.46 604.285C1558.05 602.509 1562.86 605.628 1564.24 611.262C1565.61 616.897 1563.02 622.934 1558.44 624.771C1553.82 626.624 1548.95 623.509 1547.56 617.83C1546.18 612.149 1548.82 606.073 1553.46 604.285Z" fill="#230F26"/>
<path d="M1544.89 574.611C1549.31 575.659 1555.3 575.868 1556.15 581.921C1553.89 586.39 1548.94 587.305 1544.66 588.844C1539.14 592.237 1540.21 592.912 1535.22 591.845L1533.77 588.372C1535.64 578.465 1537.76 578.136 1544.89 574.611Z" fill="#230F26"/>
<path d="M2471.93 1266.57C2473.11 1266.99 2473.38 1267.65 2474.44 1268.82C2475.02 1328.79 2472.27 1396.17 2470.4 1456.3C2462.53 1449.34 2435.29 1422.98 2427.04 1425.1C2428.13 1436.66 2461.81 1463.93 2470.24 1471.38L2466.05 1665.62C2466.2 1672.2 2466.8 1680.38 2465.27 1686.53C2450.31 1704.18 2436 1660.56 2431.63 1648.56C2395.58 1549.75 2402.22 1346.11 2471.93 1266.57Z" fill="#9ED0C9"/>
<path d="M1782.63 1351.85L1785.19 1351.94C1791.28 1356.96 1796.58 1381.12 1799.19 1390.89C1829.81 1389.16 1880.71 1379.37 1912.33 1374.07C1828.26 1437.58 1776.69 1431.47 1681.43 1437.17C1646.54 1440.44 1617.64 1443.43 1583.85 1457.35C1575.57 1443.29 1564.63 1420.21 1556.93 1404.91C1623.97 1379.93 1712.61 1364.02 1782.63 1351.85Z" fill="#F09FA5"/>
<path d="M2068.88 941.782C2142.69 934.653 2076.41 1128.56 2060.57 1169.14C2058.32 1162 2056.23 1152.72 2054.39 1145.25C2038.73 1082.43 2021.9 1030.79 2002.41 969.404C2026.22 956.945 2043.5 948.646 2068.88 941.782Z" fill="#9ED0C9"/>
<path d="M1734.79 1031.01C1739.85 1039.93 1757.91 1100.27 1762.08 1114.23C1784.96 1190.69 1807.91 1267.73 1829.79 1344.65C1869.22 1340.65 1928.16 1329.24 1967.81 1320.33C1959.89 1328.36 1951.87 1337.03 1944.03 1345.26L1926.57 1362.05C1894.53 1363.14 1838.55 1373.02 1805.66 1378.38C1787.96 1321.1 1776.48 1265.95 1762.11 1207.54C1748.94 1154.03 1735.9 1105.06 1724.82 1050.53L1734.79 1031.01Z" fill="url(#paint0_linear_29_20)"/>
<path d="M1645.65 1453.3C1655.2 1456.4 1804.72 1628.41 1824.5 1650.8C1816.69 1656.92 1794.3 1677.49 1786.92 1672.75C1746.59 1629.76 1707.85 1583.84 1667.4 1540.9C1643.91 1515.96 1621.24 1491.26 1600.79 1462.41C1615.27 1458.35 1630.94 1455.28 1645.65 1453.3Z" fill="#F09FA5"/>
<path d="M1594.85 1655.75C1597.76 1676.42 1594.82 1734.47 1594.38 1758.88L1591.42 1963.03L1545.9 1962.93C1542.41 1949.17 1545.36 1893.5 1547.87 1878.14C1554.32 1838.61 1564.05 1796.48 1572.72 1757.23C1579.18 1727.92 1586.27 1683.12 1594.85 1655.75Z" fill="#9ED0C9"/>
<path d="M653.499 938.762L740.935 938.15C735.381 970.592 731.135 1018.47 727.551 1052.3C727.105 1054.46 726.327 1056.14 725.545 1058.18C715.568 1066.1 679.087 1062.49 666.36 1061.88C659.866 1026.82 656.578 975.659 653.499 938.762Z" fill="#FDFBF7"/>
<path d="M1746.66 1218.26C1751.53 1216.84 1753.05 1218.04 1755 1222.94L1753.65 1227.35C1749.64 1232.05 1745.39 1231.79 1740.02 1233.09C1683.37 1246.83 1626.71 1261.84 1570.49 1278.29C1544.92 1285.77 1517.26 1293.53 1492.27 1303.38C1481.32 1307.69 1464.6 1318.43 1456.27 1328.27C1430.54 1358.67 1421.64 1403.09 1401.93 1438.09C1385.99 1410.36 1386.28 1367.23 1402.55 1339.1C1422.18 1305.76 1461.18 1293.62 1491.8 1284.91C1576.43 1260.86 1661.39 1238.08 1746.66 1218.26Z" fill="#F09FA5"/>
<path d="M2351.92 1702.08L2599.53 1701.02L2591.14 1732.85L2590.11 1735.21C2582.85 1740.71 2386.24 1739.46 2359.37 1739.51C2356.73 1727.23 2354.35 1714.46 2351.92 1702.08Z" fill="#FDFBF7"/>
<path d="M601.788 1066.97C619.673 1066.77 637.359 1066.21 655.179 1067.75C663.082 1068.43 673.487 1074.2 680.69 1073.86C704.363 1072.74 728.147 1068.76 751.866 1068.87C761.684 1068.89 778.363 1070.64 782.133 1084.33C784.885 1094.33 778.724 1106.44 774.9 1115.28C764.683 1125.18 725.425 1121.5 711.291 1121.5L603.431 1121.68C609.27 1097.41 609.609 1089.6 601.788 1066.97Z" fill="#9ED0C9"/>
<path d="M2715.06 1555.74C2718 1573.1 2690.87 1607.59 2681.61 1619.46C2668.2 1636.64 2652.14 1648.29 2636.64 1661.46C2595.74 1696.21 2559.81 1690.2 2513.27 1690.06L2513.2 1688.23C2522 1668.85 2688.65 1570.79 2715.06 1555.74Z" fill="#9ED0C9"/>
<path d="M1847.48 606.725C1861.18 610.656 1854.41 647.226 1860.68 656.14C1886.31 692.528 1888.81 689.731 1881.77 741.397C1856.14 714.967 1840.96 701.192 1811.85 680.936C1822.92 680.543 1850.15 681.574 1857.38 671.775L1855.62 669.471C1842.25 664.38 1827.44 667.488 1813.5 669.354C1764.33 680.489 1747.25 690.9 1704.53 720.93C1735.24 657.265 1793.93 629.83 1847.48 606.725Z" fill="#9ED0C9"/>
<path d="M2674.85 1536.11L2675.88 1536.02C2683.01 1535.48 2705.52 1536.41 2710.75 1542.22C2708.82 1548.69 2700.95 1550.85 2695.99 1553.55C2643.65 1581.99 2593.15 1615.18 2543.33 1649.89C2534.5 1656.11 2525.44 1663.1 2516.7 1669.62C2527.79 1642.65 2533.08 1623.93 2541.23 1595.58C2589.24 1556.58 2618.3 1542.1 2674.85 1536.11Z" fill="#9ED0C9"/>
<path d="M1866.94 1807.88C1874.17 1815.47 1882.24 1830.38 1887.98 1840.34C1810.62 1934.02 1820.99 1931.74 1715.22 1936.03L1695.32 1935.93C1716.51 1915.07 1748.86 1900.23 1774.07 1887.84L1795.65 1897.33C1810.78 1871.7 1822.35 1849.89 1835.32 1822.6C1847.18 1817.77 1855.64 1814.31 1866.94 1807.88Z" fill="#FDFBF7"/>
<path d="M1258.27 1859.5C1273.82 1867.37 1302.62 1890.35 1322.9 1901.51C1318 1912.13 1313.49 1924.6 1309.24 1935.76C1240.44 1937.33 1171.9 1936.6 1103.12 1936.4C1106.85 1930.12 1108.84 1927.54 1113.33 1922.01C1130.35 1913.34 1166.94 1901.96 1185.89 1895.51C1192.74 1899.33 1199.3 1902.87 1205.71 1907.73C1211.96 1912.48 1213.37 1922.3 1220.85 1921.87L1222.37 1919.19C1221.22 1909.09 1209.35 1896.4 1203.4 1889.08L1204.92 1887.85C1211.53 1886.72 1223.11 1888.43 1226.7 1896.07L1224.52 1904.43L1226.24 1906.43C1231.03 1905.64 1267.14 1888.68 1274.55 1885.28L1275.59 1881.51C1271.74 1875.5 1257.87 1877.53 1253.84 1869.71C1254.03 1863.6 1254.16 1865.22 1258.27 1859.5Z" fill="#FDFBF7"/>
<path d="M2391.15 1894.09C2406.67 1894.6 2424.26 1895.57 2439.4 1899.4C2484.61 1910.84 2504.61 1927.61 2550.63 1907.54L2543.02 1941.68L2538.52 1959.8L2404.26 1960.31C2399.41 1940.55 2394.37 1914.21 2391.15 1894.09Z" fill="#9ED0C9"/>
<path d="M1830.37 1658.68C1838.72 1665.34 1852.3 1682.14 1859.82 1691.19C1821.28 1722.93 1783.57 1753.95 1743.62 1782.99C1733.35 1772.22 1722.3 1761.79 1711.68 1751.5C1751.23 1719.51 1790.18 1689.48 1830.37 1658.68Z" fill="#F09FA5"/>
<path d="M2271.49 1511.09C2323.23 1506.74 2367.47 1524.14 2404.34 1568.35C2405.78 1577.66 2415.29 1617.3 2411.83 1622.93L2407.97 1621.26C2392.41 1610.15 2261.26 1520.48 2259.76 1516C2262.97 1512.67 2267.24 1512.21 2271.49 1511.09Z" fill="#9ED0C9"/>
<path d="M1201.27 1093.06L1316.24 1092.21C1340.78 1092.07 1371.81 1090.4 1396.17 1095.21C1411.28 1098.2 1442.07 1113.6 1459.38 1116.74C1459.76 1117.44 1460.14 1118.14 1460.51 1118.83C1432.94 1121.35 1396.24 1117.44 1367.61 1118.12C1312.45 1119.44 1258.8 1120.57 1203.7 1117.93C1204.61 1106.76 1203.94 1103.8 1201.27 1093.06Z" fill="#9ED0C9"/>
<path d="M1953.44 1779.67C1957.69 1781.67 1961.1 1786.27 1964.49 1790.14C1935.16 1825.86 1905.36 1860.39 1874.91 1894.63C1854.98 1917.04 1835.05 1940.99 1814.27 1962.07L1696.16 1962.78C1690.73 1962.22 1692.09 1963.23 1687.93 1959.68L1687.62 1955.95C1698.14 1938.12 1782.2 1948.21 1807.06 1938.2C1831.02 1928.56 1927.77 1808.92 1953.44 1779.67Z" fill="#FDFBF7"/>
<path d="M2365.16 1604.48C2379.56 1611.78 2406.18 1632.98 2419.78 1643.4C2424.58 1659.73 2431.33 1674.86 2438.29 1689.86C2421.36 1690.3 2407.28 1691.52 2390.72 1686.7C2359.19 1675.47 2339.11 1661.81 2312.24 1640.25C2330.39 1628.58 2347.35 1616.96 2365.16 1604.48Z" fill="#9ED0C9"/>
<path d="M1096.23 1946.82L1309.79 1945.97C1323.77 1945.92 1390.97 1944.62 1399.97 1946.52C1401.8 1950.82 1401.12 1957.62 1401.01 1962.88C1338.03 1965.9 1261.23 1963.58 1196.87 1963.77L1133.35 1963.97C1124.43 1964 1105.27 1964.72 1097.4 1962.83C1094.84 1958.63 1095.89 1952.35 1096.23 1946.82Z" fill="#FDFBF7"/>
<path d="M2252.71 1528.62C2271.83 1536.05 2336.05 1583.07 2357.2 1598.02L2339.88 1609.72L2305.79 1632.49C2276.15 1603.89 2262.61 1572.76 2252.71 1528.62Z" fill="#9ED0C9"/>
<path d="M1549.28 1609.69C1559.76 1617.16 1576.12 1634.56 1585.88 1644.51L1555.19 1792.26C1553.01 1804.39 1549.54 1816.67 1546.4 1828.54C1545.24 1760.55 1547.46 1677.81 1549.28 1609.69Z" fill="#9ED0C9"/>
<path d="M1554.08 1175.01L1601.83 1175.08C1602.02 1194.51 1602.98 1221.17 1599.65 1240.23C1599.12 1243.25 1598.11 1243.1 1595.57 1244.83C1583.25 1248.99 1565.88 1253.25 1553.09 1256.82L1554.08 1175.01Z" fill="#9ED0C9"/>
<path d="M1471.57 1012.17C1473.73 1011.78 1473.98 1012.07 1476.13 1012.5C1476.49 1018.29 1470.49 1024.81 1467.87 1032.28C1458.06 1060.38 1460.66 1081.31 1467.97 1108.07L1438.12 1100.33C1403.65 1089.13 1421.66 1039.07 1440.32 1017.08C1449.05 1014.84 1462.39 1013.44 1471.57 1012.17Z" fill="#9ED0C9"/>
<path d="M1854.39 1708.29C1862.46 1713.86 1870.65 1723.15 1877.78 1730.68C1859.63 1767.16 1842.98 1771.87 1812.44 1783.66L1788.59 1762.09L1854.39 1708.29Z" fill="#FDFBF7"/>
<path d="M1394.27 1879.53C1400.12 1886.65 1401.3 1923.49 1402.04 1935.52L1328.4 1935.55C1323.74 1935.46 1325.41 1936.13 1321.71 1933.46C1319.92 1924.3 1329.43 1910.25 1333.64 1902.53L1394.27 1879.53Z" fill="#9ED0C9"/>
<path d="M1911.54 1741.24C1918.25 1744.97 1940.98 1765.11 1948.12 1771.21C1934.01 1788.29 1917.54 1806.05 1902.79 1822.57L1893.55 1832.38L1875.79 1800.95C1889.35 1782.51 1900.42 1761.91 1911.54 1741.24Z" fill="#9ED0C9"/>
<path d="M2361.6 1750.67C2388.7 1749.77 2569.97 1746.05 2584.63 1751.55C2586.94 1756.22 2586.08 1756.14 2585.79 1762.75C2546.06 1765.48 2496.25 1761.78 2455.27 1763.56C2440.71 1764.18 2374.48 1764.8 2365.36 1762.81C2362.5 1759.28 2362.36 1755.57 2361.6 1750.67Z" fill="#9ED0C9"/>
<path d="M1305.26 1804.75C1320.81 1807.47 1373.3 1819.06 1383.36 1830.51C1386.5 1842.54 1377.2 1846.01 1369.61 1849.97C1339.15 1866.85 1318.37 1850.94 1295.36 1828.5L1305.26 1804.75Z" fill="#FDFBF7"/>
<path d="M1888.6 1727.93C1892.94 1729.39 1899.96 1732.82 1904.42 1734.78C1872.1 1794.67 1871.16 1800.32 1814.79 1816.95C1809.48 1818.66 1806.72 1819.88 1802.11 1816.18C1799.82 1810.73 1800.77 1802.51 1801.03 1796.05C1845.47 1786.62 1865.33 1778.87 1888.6 1727.93Z" fill="#9ED0C9"/>
<path d="M1285.6 1834.63C1311.51 1863.11 1335.52 1876.94 1371.41 1860.96C1377.82 1858.11 1382.75 1853.85 1389.48 1851.35C1392.85 1854.7 1393.64 1861.41 1391.95 1866.3C1388.74 1870.86 1383.92 1871.77 1379.11 1873.48L1328.65 1892.63C1309.21 1882.13 1287.59 1865.74 1269.41 1852.27L1285.6 1834.63Z" fill="#9ED0C9"/>
<path d="M606.074 998.147L649.578 998.165C651.284 1009.27 657.446 1044.31 653.996 1053.75L650.904 1055.16L604.304 1055.03C615.312 1031.85 614.461 1021.36 606.074 998.147Z" fill="#F09FA5"/>
<path d="M1744.77 1010.16C1745.01 1010.42 1746.48 1011.84 1746.81 1012.84C1781.05 1116.59 1810.95 1223.44 1842.08 1328.79C1841.63 1331.03 1841.28 1332.81 1841.02 1334.11C1832.17 1327.07 1818.95 1273.88 1814.66 1259.44L1780.08 1143.83L1756.2 1064.95C1751.9 1051.14 1747.14 1036.63 1743.13 1022.66C1741.66 1017.58 1743.13 1015.7 1744.77 1010.16Z" fill="#9ED0C9"/>
<path d="M1781.92 622.387L1783.55 622.797C1783.41 623.581 1740.22 656.757 1734.55 662.398C1698.73 698.025 1684.87 750.078 1668.5 800.934L1666.5 800.272C1662.97 782.032 1674.4 744.508 1681.83 728.02C1710.81 663.779 1727.1 644.312 1781.92 622.387Z" fill="#9ED0C9"/>
<path d="M1034.06 798.199C1055.44 813.072 1137.31 999.022 1158.85 1034.92C1163.15 1042.09 1194.24 1103.81 1196.59 1112.44C1182.17 1105.05 1098.79 923.384 1082.36 895.063C1074.2 880.991 1038.12 812.982 1034.06 798.199Z" fill="#9ED0C9"/>
<path d="M1695.39 1129.43C1707.89 1129.22 1720.8 1129.69 1733.34 1129.95L1742.14 1163.05L1694.88 1162.74L1695.39 1129.43Z" fill="#F09FA5"/>
<path d="M744.967 954.691C788.236 958.789 800.878 1033.51 742.262 1054.71C737.234 1053.34 738.894 1054.64 735.813 1050.08C736.107 1035.28 763.693 1039.07 770.669 1019.52C781.582 988.934 748.902 974.015 744.967 954.691Z" fill="url(#paint1_linear_29_20)"/>
<path d="M1654.76 738.386C1658.54 741.193 1662.43 748.296 1661.49 753.581C1657.9 773.686 1661.08 833.676 1650.83 846.659C1646.81 816.589 1643.89 785.281 1642.48 754.799C1647.1 747.217 1649.05 744.794 1654.76 738.386Z" fill="#9ED0C9"/>
<path d="M649.395 918.383C672.15 917.742 719.976 915.268 743.674 919.599C746.08 920.038 746.883 924.705 747.806 927.846C726.03 928.57 674.283 931.558 651.663 925.405C649.924 924.932 649.836 921.073 649.395 918.383Z" fill="#F09FA5"/>
<path d="M744.164 976.605C763.364 988.045 768.19 1000.73 755.129 1023.04C749.506 1027.43 745.715 1029.87 740.664 1024.46C737.095 1012.34 741.997 990.159 744.164 976.605Z" fill="#F09FA5"/>
<path d="M1676.43 1729.81C1678.35 1732.84 1683.62 1739.48 1684.32 1740.67C1677.79 1746.07 1676.75 1786.78 1672.53 1799.07C1671.22 1787.18 1675.67 1777.98 1667.96 1770.31C1669.4 1757.66 1671.01 1740.46 1676.43 1729.81Z" fill="#230F26" fill-opacity="0.980392"/>
<path d="M1705.94 1087.26C1711.48 1091.16 1714.3 1105.75 1713 1113.95C1709.81 1118.74 1711.01 1117.31 1705.57 1119.16L1697.66 1118.7C1693.78 1115.51 1694.8 1117.39 1693.82 1111.68C1695.34 1103.94 1701.94 1094.09 1705.94 1087.26Z" fill="#FDFBF7"/>
<path d="M1608.94 988.842C1625.19 993.297 1639.6 1008.01 1647.88 1025.41C1632.86 1024.04 1618.21 1001.98 1608.94 988.842Z" fill="#FBEAC3"/>
<path d="M1716.06 1066.49C1723.3 1071.57 1728.49 1109.15 1729.23 1119.7L1728.69 1118.99C1721.51 1109.73 1711.92 1079.13 1716.06 1066.49Z" fill="#9ED0C9"/>
<path d="M1812.53 1827.43C1815.07 1826.95 1817.86 1826.87 1820.45 1826.71L1822.33 1829.23L1821.21 1833.24C1817.25 1838.03 1816.64 1838.96 1811.37 1840.96C1806.58 1840.1 1800.57 1840.28 1799.33 1833.98C1802.46 1829.65 1807.79 1828.85 1812.53 1827.43Z" fill="#FDFBF7"/>
<path d="M1234.41 1874.32C1239.13 1876.11 1245.73 1877.91 1249.07 1881.97L1248.99 1885.14L1244.25 1889.75C1237.99 1887.93 1231.89 1886.88 1227.94 1881.19C1229.62 1876.45 1230.14 1877.27 1234.41 1874.32Z" fill="#FDFBF7"/>
<path d="M1789.77 1849.27C1794.86 1848.65 1802.3 1848.01 1806.6 1851.22C1809.28 1856.26 1808.69 1853.84 1808 1861.11C1798.55 1864.74 1791.25 1862.11 1789.77 1849.27Z" fill="#FDFBF7"/>
<path d="M1781.16 1868.79C1786.14 1869.35 1791.6 1869.31 1795.54 1872.82C1797.2 1878.65 1796.77 1876.78 1794.29 1884C1789.72 1883.04 1785.3 1882.62 1781.51 1879.46C1779.09 1874.24 1779.69 1876.15 1781.16 1868.79Z" fill="#FDFBF7"/>
<path d="M2532.93 429.456C2553.46 429.013 2576.11 429.857 2596.8 430.083L2590.9 872.299C2564.12 874.731 2516.43 873.025 2488.59 873.089L2289.69 873.507L2224.61 873.746C2223.58 823.496 2225.77 770.238 2226.41 719.668L2228.77 430.91L2532.93 429.456ZM2236.63 860.577L2489.06 860.387C2505.7 860.379 2567.86 862.925 2579.02 859.32L2584.19 444.056L2242.12 445.163L2236.63 860.577Z" fill="#6DA5A3"/>
<path d="M2293.67 508.013C2313.34 505.851 2354.54 507.18 2375.22 507.185L2531.59 507.313C2528.56 601.535 2528.69 701.485 2527.57 796.188C2502.72 797.765 2469.53 796.696 2443.82 796.765L2289.25 797.012C2287.23 712.67 2290.97 593.564 2293.67 508.013ZM2296.88 788.731C2369.27 788.512 2447.84 790.258 2519.72 787.897L2523.29 514.273C2450.83 514.438 2372.84 512.72 2300.84 514.868L2296.88 788.731Z" fill="#6DA5A3" fill-opacity="0.968627"/>
<path d="M2253.69 459.756L2573.77 458.724L2570.46 711.981C2570.05 748.539 2571.03 809.679 2568.12 844.564C2530.13 846.44 2487.38 845.566 2449.19 845.572L2246.94 845.439C2247.3 832.17 2247.38 805.454 2248.63 793.269C2251.63 784.486 2251.38 771.451 2251.73 761.832C2252.4 775.785 2250.98 830.781 2252.92 837.505L2254.32 838.302C2339.11 836.642 2424.12 838.295 2508.93 837.335C2525.93 837.142 2542.94 837.75 2559.91 835.762C2562.46 797.246 2561.89 748.122 2562.52 708.973L2565.54 467.145L2259.61 468.136C2259.46 477.965 2259.26 485.002 2258.35 494.887C2254.41 506.97 2253.79 583.549 2253.41 602.501C2252.52 571.49 2254.83 536.173 2254.48 504.803C2254.33 490.974 2255.57 473.064 2253.69 459.756Z" fill="#6DA5A3" fill-opacity="0.976471"/>
<path d="M2248.63 793.269C2247.21 743.968 2251.67 685.507 2249.5 635.329C2248.4 610.019 2250.26 467.961 2253.69 459.756C2255.57 473.064 2254.33 490.974 2254.48 504.803C2254.83 536.173 2252.52 571.49 2253.41 602.501C2253.79 583.549 2254.41 506.97 2258.35 494.888C2258.86 515.581 2258.21 537.67 2257.66 558.433C2255.33 647.154 2257.85 735.723 2254.96 824.445C2254.81 828.814 2254.9 834.06 2254.32 838.302L2252.92 837.505C2250.98 830.782 2252.4 775.785 2251.73 761.832C2251.39 771.452 2251.63 784.486 2248.63 793.269Z" fill="#6DA5A3" fill-opacity="0.87451"/>
</g>
<defs>
<linearGradient id="paint0_linear_29_20" x1="1941.11" y1="1172.95" x2="1745.36" y2="1197.47" gradientUnits="userSpaceOnUse">
<stop stop-color="#FBEBB3"/>
<stop offset="1" stop-color="#FFFCFC"/>
</linearGradient>
<linearGradient id="paint1_linear_29_20" x1="778.837" y1="997.069" x2="732.315" y2="1002.83" gradientUnits="userSpaceOnUse">
<stop stop-color="#F8DDD3"/>
<stop offset="1" stop-color="#EAE5DE"/>
</linearGradient>
<clipPath id="clip0_29_20">
<rect width="2930" height="1984" fill="white"/>
</clipPath>
</defs>
</svg>
